<svg xmlns="http://www.w3.org/2000/svg" viewBox="0 0 280 360" fill="none">
 <defs>
  <linearGradient id="trunk" x1="0" y1="0" x2="1" y2="1"><stop stop-color="#8c603c"/><stop offset="1" stop-color="#604026"/></linearGradient>
  <linearGradient id="crown" x1="0" y1="0" x2="1" y2="1"><stop stop-color="#eeb04c"/><stop offset=".55" stop-color="#d37231"/><stop offset="1" stop-color="#ab4828"/></linearGradient>
 </defs>
 <path d="M124 324c11-43 9-99-8-138l-52-39 6-9 61 33 12 47 13-45 52-40 6 10-48 47c-8 45-12 91-5 134Z" fill="url(#trunk)" stroke="#694429" stroke-width="4"/>
 <path d="M46 166C-1 133 11 68 64 50 73 19 116 2 145 19c36-22 73 0 82 27 50 9 65 62 31 101 13 47-26 83-73 77-33 27-77 19-98-5-41 5-71-19-74-50Z" fill="url(#crown)" stroke="#a74c29" stroke-width="5"/>
 <path d="M45 92c25 5 35 21 43 43m27-93c-3 35 13 55 37 66m71-48c-23 20-24 44-18 64m37 41c-36-6-53 11-64 33" stroke="#f4c368" stroke-width="7" stroke-linecap="round" opacity=".53"/>
 <g fill="#c2592b" opacity=".86"><circle cx="58" cy="177" r="8"/><circle cx="231" cy="160" r="11"/><circle cx="103" cy="83" r="8"/><circle cx="184" cy="57" r="10"/></g>
 <path d="M37 329c63 19 149 20 208 0" stroke="#b58653" stroke-width="8" stroke-linecap="round"/>
 <g fill="#c27332"><path d="m36 309 15-10 16 14-15 5Z"/><path d="m199 324 20-13 15 13-18 7Z"/><path d="m74 336 18-9 11 13-17 7Z"/></g>
</svg>
